<svg width="98" height="81" viewBox="0 0 98 81" fill="none" xmlns="http://www.w3.org/2000/svg">
<path d="M49.7051 51.8508V28.9495L27 15.3646V39.7845L49.7051 53V51.8508Z" fill="#36113C"/>
<path d="M50.8846 28.9495V53L73 39.7845V15.6519L50.8846 28.9495Z" fill="#BF2A5E"/>
<path d="M50.2949 28.2928L27.2949 14.5028L50.2949 1L72.4103 14.7901L50.2949 28.2928Z" fill="#E96559"/>
<path d="M49.7051 51.8508V28.9495L27 15.3646V39.7845L49.7051 53V51.8508Z" stroke="black"/>
<path d="M50.8846 28.9495V53L73 39.7845V15.6519L50.8846 28.9495Z" stroke="black"/>
<path d="M50.2949 28.2928L27.2949 14.5028L50.2949 1L72.4103 14.7901L50.2949 28.2928Z" stroke="black"/>
<path d="M26.4605 28.7143L46 41.8571V60.1429L26.4605 28.7143Z" fill="#E96559"/>
<path d="M23.5 27L45.4079 63H1.68867L12.5943 45L23.5 27Z" fill="#E96559"/>
<path d="M43.6316 64.7143L23.5 79L3.36842 64.7143H43.6316Z" fill="#36113C"/>
<path d="M20.5395 28.7143L1 60.4286V41.8571L20.5395 28.7143Z" fill="#BF2A5E"/>
<path d="M26.4605 28.7143L46 41.8571V60.1429L26.4605 28.7143Z" stroke="#0A0615"/>
<path d="M23.5 27L45.4079 63H1.68867L12.5943 45L23.5 27Z" stroke="#0A0615"/>
<path d="M43.6316 64.7143L23.5 79L3.36842 64.7143H43.6316Z" stroke="#0A0615"/>
<path d="M20.5395 28.7143L1 60.4286V41.8571L20.5395 28.7143Z" stroke="#0A0615"/>
<path d="M56.6728 80L68.2778 27L97 57.7742L56.6728 80Z" fill="#E96559"/>
<path d="M56.0926 78.5753L50 47.2312L67.1173 27.5699L56.0926 78.5753Z" fill="#36113C"/>
<path d="M56.6728 80L68.2778 27L97 57.7742L56.6728 80Z" stroke="black"/>
<path d="M56.0926 78.5753L50 47.2312L67.1173 27.5699L56.0926 78.5753Z" stroke="black"/>
</svg>
