<svg width="94" height="80" viewBox="0 0 94 80" fill="none" xmlns="http://www.w3.org/2000/svg">
<path d="M47.2949 27.768L24.2949 14.2431L47.2949 1L69.4103 14.5249L47.2949 27.768Z" fill="#31FFC9"/>
<path d="M47.8846 28.412V52L70 39.0387V15.3702L47.8846 28.412Z" fill="#1CB3C4"/>
<path d="M46.7051 50.8729V28.412L24 15.0884V39.0387L46.7051 52V50.8729Z" fill="#4152BB"/>
<path d="M47.2949 27.768L24.2949 14.2431L47.2949 1L69.4103 14.5249L47.2949 27.768Z" stroke="black"/>
<path d="M47.8846 28.412V52L70 39.0387V15.3702L47.8846 28.412Z" stroke="black"/>
<path d="M46.7051 50.8729V28.412L24 15.0884V39.0387L46.7051 52V50.8729Z" stroke="black"/>
<path d="M64.8889 27L53.5309 79L93 57.1935L64.8889 27Z" fill="#31FFC9"/>
<path d="M52.963 77.6021L47 46.8495L63.7531 27.5591L52.963 77.6021Z" fill="#4152BB"/>
<path d="M64.8889 27L53.5309 79L93 57.1935L64.8889 27Z" stroke="black"/>
<path d="M52.963 77.6021L47 46.8495L63.7531 27.5591L52.963 77.6021Z" stroke="black"/>
<path d="M25.8947 29.6813L45 42.5714V60.5055L25.8947 29.6813Z" fill="#31FEC8"/>
<path d="M23 28L44.4211 63.3077H1.67337L12.3367 45.6538L23 28Z" fill="#31FFC9"/>
<path d="M20.1053 29.6813L1 60.7857V42.5714L20.1053 29.6813Z" fill="#4152BB"/>
<path d="M42.6842 64.989L23 79L3.31579 64.989H42.6842Z" fill="#1A0935"/>
<path d="M25.8947 29.6813L45 42.5714V60.5055L25.8947 29.6813Z" stroke="#0A0615"/>
<path d="M23 28L44.4211 63.3077H1.67337L12.3367 45.6538L23 28Z" stroke="#0A0615"/>
<path d="M20.1053 29.6813L1 60.7857V42.5714L20.1053 29.6813Z" stroke="#0A0615"/>
<path d="M42.6842 64.989L23 79L3.31579 64.989H42.6842Z" stroke="#0A0615"/>
</svg>
